<svg width="36" height="51" viewBox="0 0 36 51" fill="none" xmlns="http://www.w3.org/2000/svg">
<path d="M17.6712 17.2341L0 34.8429L15.5482 50.3911C16.2975 51.1404 17.6088 50.6409 17.6088 49.5169V17.2341H17.6712Z" fill="#FFBB00"/>
<path d="M35.28 33.6565C35.28 34.3434 34.718 34.8429 34.0936 34.8429H17.6712H0V17.6712C0 17.359 0.124889 17.0468 0.374659 16.797L16.797 0.374655C17.2966 -0.124885 18.0459 -0.124885 18.483 0.374655L34.9053 16.797C35.1551 17.0468 35.28 17.359 35.28 17.6712V33.6565V33.6565Z" fill="url(#paint0_linear_122_77)"/>
<path d="M17.6712 34.8428H0V17.6711C0 17.3589 0.124889 17.0467 0.374659 16.7969L16.7346 0.436985C17.1092 0.0623302 17.6712 0.312085 17.6712 0.811625V34.8428Z" fill="url(#paint1_linear_122_77)"/>
<defs>
<linearGradient id="paint0_linear_122_77" x1="17.6484" y1="34.7553" x2="17.6484" y2="0.522019" gradientUnits="userSpaceOnUse">
<stop stop-color="#00D188"/>
<stop offset="0.5536" stop-color="#00D4C8"/>
<stop offset="1" stop-color="#00D6F7"/>
</linearGradient>
<linearGradient id="paint1_linear_122_77" x1="8.8243" y1="34.8522" x2="8.8243" y2="0.332638" gradientUnits="userSpaceOnUse">
<stop stop-color="#009902"/>
<stop offset="0.3056" stop-color="#00AD50"/>
<stop offset="0.7869" stop-color="#00CAC7"/>
<stop offset="1" stop-color="#00D6F6"/>
</linearGradient>
</defs>
</svg>
